HIERARCHY
ROOT root
{
	OFFSET 0.000000 0.000000 0.000000
	CHANNELS 6 Xposition Yposition Zposition Zrotation Yrotation Xrotation
	JOINT lhip
	{
		OFFSET 0.058581 -0.082280 -0.017664
		CHANNELS 3 Zrotation Yrotation Xrotation
		JOINT lknee
		{
			OFFSET 0.043451 -0.386469 0.008037
			CHANNELS 3 Zrotation Yrotation Xrotation
			JOINT lankle
			{
				OFFSET -0.014790 -0.426874 -0.037428
				CHANNELS 3 Zrotation Yrotation Xrotation
				JOINT ltoe
				{
					OFFSET 0.041054 -0.060286 0.122042
					CHANNELS 3 Zrotation Yrotation Xrotation
					End Site
					{
						OFFSET 0.000000 0.000000 0.000000
					}
				}
			}
		}
	}
	JOINT rhip
	{
		OFFSET -0.060310 -0.090513 -0.013543
		CHANNELS 3 Zrotation Yrotation Xrotation
		JOINT rknee
		{
			OFFSET -0.043257 -0.383688 -0.004843
			CHANNELS 3 Zrotation Yrotation Xrotation
			JOINT rankle
			{
				OFFSET 0.019056 -0.420046 -0.034562
				CHANNELS 3 Zrotation Yrotation Xrotation
				JOINT rtoe
				{
					OFFSET -0.034840 -0.062106 0.130323
					CHANNELS 3 Zrotation Yrotation Xrotation
					End Site
					{
						OFFSET 0.000000 0.000000 0.000000
					}
				}
			}
		}
	}
	JOINT lowerback
	{
		OFFSET 0.004439 0.124404 -0.038385
		CHANNELS 3 Zrotation Yrotation Xrotation
		JOINT upperback
		{
			OFFSET 0.004488 0.137956 0.026820
			CHANNELS 3 Zrotation Yrotation Xrotation
			JOINT chest
			{
				OFFSET -0.002265 0.056032 0.002855
				CHANNELS 3 Zrotation Yrotation Xrotation
				JOINT lowerneck
				{
					OFFSET -0.013390 0.211636 -0.033468
					CHANNELS 3 Zrotation Yrotation Xrotation
					JOINT upperneck
					{
						OFFSET 0.010113 0.088937 0.050410
						CHANNELS 3 Zrotation Yrotation Xrotation
						End Site
						{
							OFFSET 0.000000 0.000000 0.000000
						}
					}
				}
				JOINT lclavicle
				{
					OFFSET 0.071702 0.114000 -0.018898
					CHANNELS 3 Zrotation Yrotation Xrotation
					JOINT lshoulder
					{
						OFFSET 0.122921 0.045205 -0.019046
						CHANNELS 3 Zrotation Yrotation Xrotation
						JOINT lelbow
						{
							OFFSET 0.255332 -0.015649 -0.022946
							CHANNELS 3 Zrotation Yrotation Xrotation
							JOINT lwrist
							{
								OFFSET 0.265709 0.012698 -0.007375
								CHANNELS 3 Zrotation Yrotation Xrotation
								End Site
								{
									OFFSET 0.000000 0.000000 0.000000
								}
							}
						}
					}
				}
				JOINT rclavicle
				{
					OFFSET -0.082954 0.112472 -0.023707
					CHANNELS 3 Zrotation Yrotation Xrotation
					JOINT rshoulder
					{
						OFFSET -0.113228 0.046853 -0.008472
						CHANNELS 3 Zrotation Yrotation Xrotation
						JOINT relbow
						{
							OFFSET -0.260127 -0.014369 -0.031269
							CHANNELS 3 Zrotation Yrotation Xrotation
							JOINT rwrist
							{
								OFFSET -0.269108 0.006794 -0.006027
								CHANNELS 3 Zrotation Yrotation Xrotation
								End Site
								{
									OFFSET 0.000000 0.000000 0.000000
								}
							}
						}
					}
				}
			}
		}
	}
}
MOTION
Frames: 11
Frame Time: 0.033333
0.129507 0.895044 0.882399 -21.037934 2.086229 99.888750 10.094173 8.835340 -41.363346 -5.130631 9.332732 54.799311 1.750887 10.710246 -27.459372 0.000000 -0.000000 0.000000 -16.296160 -8.353128 -45.845350 0.759298 -2.670220 36.306920 14.092627 -0.531804 -3.272260 0.000000 -0.000000 0.000000 1.527980 3.795450 52.736224 1.789295 -0.518963 -7.724310 3.264974 -2.307630 0.576431 -1.325049 -5.645906 -19.090942 0.764901 -14.423270 5.252891 -24.423681 -3.927374 8.432330 -39.691306 -3.755320 9.371954 -14.319031 -75.660351 24.579370 24.354422 -13.795075 -28.652910 25.450348 12.635872 3.786364 42.865600 7.866563 11.100596 -40.555044 63.212356 -48.350216 -24.654802 14.928167 -39.823797 
0.122024 0.897442 0.880554 -21.378607 1.831145 100.397719 10.174418 9.174726 -41.931176 -5.135625 9.079470 55.023375 1.818655 10.835927 -27.236761 0.000000 -0.000000 0.000000 -16.230879 -8.274460 -47.189249 1.192307 -2.685022 37.538485 13.619162 -0.547361 -3.702060 0.000000 -0.000000 0.000000 1.484365 3.662793 52.623496 1.498057 -0.170106 -7.757772 3.079687 -2.404845 0.949562 -1.633957 -4.722713 -19.376116 0.174943 -13.146223 5.733761 -24.577556 -3.594771 8.354934 -39.456065 -3.048219 9.419508 -14.967955 -76.072846 24.764538 24.243073 -13.878059 -28.540296 25.376502 12.896090 3.421185 42.341922 8.998236 11.508993 -41.155787 64.147143 -49.082901 -24.534881 14.921555 -39.700318 
0.115071 0.898653 0.878784 -21.016285 1.423118 100.776765 9.961568 9.115518 -42.473440 -5.187608 8.488596 55.110490 1.829150 10.988184 -27.043410 0.000000 -0.000000 0.000000 -16.571754 -8.504663 -47.966975 1.379990 -3.227051 38.799718 13.255747 -0.435472 -4.465548 0.000000 -0.000000 0.000000 1.781550 3.039232 52.890591 1.187132 -0.240672 -8.072787 2.893004 -2.474929 1.096556 -2.432187 -3.923727 -19.020023 -0.271613 -11.303828 5.560837 -24.669945 -3.440528 8.343271 -39.579673 -2.144179 9.436220 -15.452472 -76.161951 24.392879 24.837960 -13.993508 -28.734419 24.763196 13.328059 3.281958 41.890291 9.958338 11.788857 -40.847293 65.584421 -49.456468 -25.420127 14.910267 -40.244281 
0.103201 0.900636 0.876449 -20.370286 0.874007 101.392132 10.241023 9.133680 -43.097884 -5.630535 8.225818 55.102695 1.520811 10.836757 -26.955024 0.000000 -0.000000 0.000000 -16.872576 -8.548760 -49.358618 1.702378 -3.547009 41.075657 12.580037 -0.656139 -5.961340 0.000000 -0.000000 0.000000 1.805975 2.135293 53.586254 0.447155 -0.033256 -8.720419 2.524672 -2.428271 1.387165 -3.300082 -3.061621 -18.958322 -0.553184 -8.786105 5.159647 -24.696177 -2.956924 8.023694 -39.467945 -0.881861 9.484564 -16.216622 -76.599430 24.409551 26.768729 -13.141375 -30.727303 23.478415 13.922718 2.565928 41.984113 11.878129 12.562353 -39.614937 67.557459 -48.892437 -26.632380 14.227699 -41.354339 
0.094747 0.903914 0.873014 -19.469499 0.542258 102.271262 10.759151 9.139673 -44.382583 -6.015907 8.448281 55.509973 1.321327 10.248667 -26.852860 0.000000 -0.000000 0.000000 -17.261050 -8.666974 -51.042487 1.858702 -4.274109 43.299706 11.918458 -0.968884 -7.326248 0.000000 -0.000000 0.000000 1.659099 1.482600 53.278050 0.071157 0.154673 -8.715979 2.262045 -2.367861 1.418277 -3.316553 -2.956527 -18.603590 -0.248834 -7.498502 4.372437 -24.748070 -2.591403 8.007500 -39.320064 -0.067077 9.467739 -15.537236 -76.896504 22.591971 28.235508 -12.628457 -31.909188 22.406506 14.520493 1.922514 42.364277 13.957598 12.956587 -37.404164 67.814176 -47.597720 -26.935234 13.835990 -41.765316 
0.085449 0.906151 0.868154 -18.748974 0.283339 102.522041 11.452418 9.662045 -45.041672 -6.519133 8.645488 56.156493 1.196107 9.508519 -26.744162 0.000000 -0.000000 0.000000 -17.546718 -8.581174 -52.414638 1.876724 -4.887045 46.035384 11.257517 -0.869499 -8.892678 0.000000 -0.000000 0.000000 1.619220 1.440713 53.884180 -0.362794 0.510508 -8.885584 2.159191 -2.208279 1.419480 -3.003817 -2.969536 -18.311375 0.046163 -7.146963 3.349146 -24.674241 -2.523885 7.809492 -39.425536 0.657111 9.484592 -14.839464 -77.324508 21.529930 30.096466 -12.213927 -32.256607 21.065478 15.484170 1.289896 42.583892 16.135128 12.768183 -35.676424 67.728247 -46.830391 -28.379739 12.788206 -42.712995 
0.076892 0.909202 0.861235 -17.076412 -0.426653 102.868756 11.504666 9.517262 -46.545714 -7.100240 8.369838 57.207526 1.077102 8.967416 -26.575566 0.000000 -0.000000 0.000000 -18.190223 -9.737129 -53.836241 1.954375 -5.729433 49.094582 10.953633 -0.580709 -10.597798 0.000000 -0.000000 0.000000 2.143618 1.237924 54.575342 -0.763610 0.641982 -9.336585 1.883277 -2.167324 1.785586 -2.364684 -3.556563 -18.420499 -0.064189 -7.558588 2.502366 -24.219139 -2.670537 7.490554 -39.645523 0.884020 9.548285 -15.342966 -77.368849 23.085360 30.745689 -12.116924 -32.784367 19.255382 16.515408 0.565444 42.727632 18.887523 11.958549 -33.466991 66.571778 -45.705703 -29.901131 11.389338 -44.721792 
0.067091 0.911336 0.852326 -15.673422 -1.018583 102.923184 11.802820 9.769964 -47.769035 -7.520210 8.339364 58.604504 0.593714 8.106270 -26.970798 0.000000 -0.000000 0.000000 -18.709716 -10.474612 -55.308437 1.702812 -6.571262 52.739584 10.514757 -0.424221 -12.583295 0.000000 -0.000000 0.000000 2.597215 1.458286 55.476633 -1.247359 1.214784 -9.348941 1.617240 -2.032316 1.742320 -1.658174 -4.133537 -18.445399 -0.134409 -8.557588 1.890599 -23.945526 -3.011758 7.451183 -39.576698 1.113037 9.797408 -13.556771 -77.674625 22.442770 30.763386 -12.306801 -33.007620 18.096195 17.950125 -0.136635 41.585116 21.837918 10.592164 -31.049457 63.836600 -45.389011 -29.576673 9.749436 -46.140259 
0.057136 0.913910 0.842343 -13.705449 -1.607725 103.148485 11.828291 9.800697 -49.667662 -7.883580 7.831020 60.213838 0.242268 7.353823 -27.197628 0.000000 -0.000000 0.000000 -19.214814 -11.706675 -56.871680 1.462389 -7.584960 56.457652 9.912742 -0.509683 -14.408023 0.000000 -0.000000 0.000000 3.376189 1.429918 56.260003 -1.729433 1.758341 -9.660624 1.394148 -1.800422 1.920531 -0.718580 -5.544652 -18.249409 -0.032885 -9.761157 1.140732 -24.053076 -3.693498 7.666513 -39.390344 1.234388 10.061130 -10.035347 -77.998042 19.287929 31.412487 -12.073286 -33.338417 16.960007 19.928526 -0.570980 39.151016 25.021606 8.103835 -27.510569 59.560556 -45.124260 -30.085842 8.162088 -46.834216 
0.047544 0.915973 0.832989 -11.357590 -2.300167 103.276234 11.921711 9.270213 -51.505892 -8.447559 7.351192 61.687583 -0.027239 6.647765 -27.110974 0.000000 -0.000000 0.000000 -19.851035 -13.227253 -57.987584 1.391141 -8.536369 59.814626 9.423640 -0.927031 -16.144011 0.000000 -0.000000 0.000000 4.231114 1.161815 57.318682 -1.986494 2.186656 -9.772181 1.293518 -1.419722 1.852376 0.300421 -7.125463 -18.546731 -0.009816 -10.893019 0.655358 -24.502884 -4.204440 7.488218 -39.223008 0.981770 10.621076 -5.886456 -77.556168 15.131680 32.604259 -11.118143 -34.268945 16.489459 22.019950 -0.587054 34.396686 28.313032 4.534288 -23.508160 54.159702 -45.028589 -31.261847 7.511512 -46.252406 
0.037179 0.918149 0.822976 -9.336372 -2.891678 103.801388 12.299352 9.036918 -53.701167 -9.028540 7.200311 63.043832 -0.349690 5.966779 -27.052078 0.000000 -0.000000 0.000000 -20.237744 -14.515960 -59.671357 1.135934 -9.460649 63.169538 8.895149 -1.361507 -17.834361 0.000000 -0.000000 0.000000 4.969143 1.125390 57.761108 -2.258164 2.828496 -9.695377 1.240521 -1.007474 1.755558 1.155759 -8.897677 -18.630838 0.219315 -12.292758 0.249556 -24.672922 -4.715687 7.525368 -39.637550 0.657274 10.941053 -1.148774 -76.355219 9.461435 32.263687 -10.911358 -36.044299 15.730076 23.830057 -0.537047 29.326987 31.065081 0.081653 -19.467220 47.923301 -44.890449 -31.209577 7.152708 -44.757171 
